Coordinates
version=1
nRows=13
nColumns=38
inDegrees=no

Units are S.I. units (second, meters, Newtons, ...)
If the header above contains a line with 'inDegrees', this indicates whether rotational values are in degrees (yes) or radians (no).

endheader
time	pelvis_tilt	pelvis_list	pelvis_rotation	pelvis_tx	pelvis_ty	pelvis_tz	hip_flexion_r	hip_adduction_r	hip_rotation_r	knee_angle_r	ankle_angle_r	subtalar_angle_r	mtp_angle_r	hip_flexion_l	hip_adduction_l	hip_rotation_l	knee_angle_l	ankle_angle_l	subtalar_angle_l	mtp_angle_l	lumbar_extension	lumbar_bending	lumbar_rotation	arm_flex_r	arm_add_r	arm_rot_r	elbow_flex_r	pro_sup_r	wrist_flex_r	wrist_dev_r	arm_flex_l	arm_add_l	arm_rot_l	elbow_flex_l	pro_sup_l	wrist_flex_l	wrist_dev_l
1.69167	0.0835564	-0.148087	-0.140009	0.953885	0.996369	-0.3077	0.153352	0.261084	-0.00402488	-0.893958	0.530897	0.0508115	3.48375e-05	0.446682	-0.204373	-0.110532	-2.02814	0.0490061	0.0211036	0.000119339	-0.517829	0.134419	0.109415	-0.0697587	-0.396348	0.131449	1.95362	1.98038	0.0223425	-0.00780003	-0.271788	-0.255256	0.142931	1.94541	1.66027	0.0428049	0.0219974
1.7	0.0733801	-0.133947	-0.148063	0.953906	0.998376	-0.306474	0.108605	0.243647	0.018561	-0.85932	0.535185	0.0508115	3.48375e-05	0.506224	-0.198395	-0.109383	-2.00237	0.0590697	0.0211036	0.000119339	-0.501677	0.11227	0.130793	-0.0517121	-0.395622	0.136733	1.9824	1.97036	0.0223425	-0.00780003	-0.293367	-0.259656	0.145627	1.96798	1.68734	0.0428049	0.0219974
1.70833	0.0619327	-0.116938	-0.156478	0.954542	1.00091	-0.305136	0.0629873	0.222181	0.0399514	-0.817466	0.529198	0.0508115	3.48375e-05	0.561959	-0.19124	-0.113792	-1.9665	0.0686792	0.0211036	0.000119339	-0.482082	0.0872402	0.151503	-0.0400838	-0.3937	0.138597	2.0156	1.96139	0.0223425	-0.00780003	-0.316863	-0.264559	0.146563	1.99335	1.71674	0.0428049	0.0219974
1.71667	0.0499205	-0.0974272	-0.164136	0.955785	1.00397	-0.303784	0.0163783	0.196892	0.0575589	-0.768695	0.511048	0.0508115	3.48375e-05	0.612878	-0.182544	-0.122863	-1.92095	0.0771537	0.0211036	0.000119339	-0.460043	0.0600367	0.170472	-0.0338182	-0.390882	0.138194	2.05152	1.95368	0.0223425	-0.00780003	-0.341854	-0.269652	0.145425	2.02001	1.74594	0.0428049	0.0219974
1.725	0.0380141	-0.0758639	-0.169956	0.957606	1.00751	-0.302518	-0.0312444	0.168277	0.0687178	-0.713667	0.479092	0.0508115	3.48375e-05	0.658105	-0.171832	-0.135403	-1.86612	0.0837655	0.0211036	0.000119339	-0.436618	0.0314299	0.186671	-0.0317768	-0.387509	0.136694	2.08861	1.9472	0.0223425	-0.00780003	-0.367977	-0.274619	0.142023	2.04673	1.77249	0.0428049	0.0219974
1.73333	0.0267581	-0.0528054	-0.173047	0.959961	1.01149	-0.301438	-0.0797095	0.137152	0.0710529	-0.653522	0.432316	0.0508115	3.48375e-05	0.696968	-0.158617	-0.150006	-1.80236	0.0879214	0.0211036	0.000119339	-0.412821	0.00220938	0.199268	-0.0328795	-0.383935	0.135129	2.12563	1.94187	0.0223425	-0.00780003	-0.394908	-0.27917	0.136299	2.07258	1.79441	0.0428049	0.0219974
1.74167	0.0165048	-0.0289295	-0.17283	0.962776	1.01582	-0.300628	-0.128578	0.104646	0.0628528	-0.589958	0.370728	0.0508115	3.48375e-05	0.729034	-0.142539	-0.16512	-1.72998	0.089306	0.0211036	0.000119339	-0.389524	-0.0268303	0.207773	-0.0362121	-0.380506	0.134274	2.16168	1.93763	0.0223425	-0.00780003	-0.42233	-0.283071	0.128351	2.09692	1.81031	0.0428049	0.0219974
1.75	0.00738945	-0.00503934	-0.169093	0.965957	1.02039	-0.300149	-0.177117	0.0721495	0.043392	-0.525251	0.295675	0.0508115	3.48375e-05	0.754126	-0.123492	-0.179116	-1.64932	0.0879605	0.0211036	0.000119339	-0.367392	-0.0548826	0.21211	-0.0410896	-0.377534	0.134595	2.19622	1.9346	0.0223425	-0.00780003	-0.44988	-0.286171	0.118456	2.11936	1.81954	0.0428049	0.0219974
1.75833	-0.000647909	0.0179558	-0.161986	0.96939	1.0251	-0.300033	-0.224349	0.0412259	0.0131457	-0.46218	0.210012	0.0508115	3.48375e-05	0.772295	-0.101722	-0.190366	-1.56073	0.0842953	0.0211036	0.000119339	-0.346877	-0.0811128	0.212624	-0.0470731	-0.375285	0.136238	2.22901	1.93299	0.0223425	-0.00780003	-0.477116	-0.288427	0.107071	2.13966	1.82209	0.0428049	0.0219974
1.76667	-0.00777049	0.0390719	-0.151956	0.972952	1.02982	-0.30027	-0.269158	0.0134736	-0.0261467	-0.40385	0.118038	0.0508115	3.48375e-05	0.783759	-0.0778636	-0.197345	-1.46468	0.0790452	0.0211036	0.000119339	-0.328242	-0.10466	0.210007	-0.0539461	-0.373964	0.139089	2.25996	1.93314	0.0223425	-0.00780003	-0.503496	-0.289904	0.0948135	2.15769	1.81861	0.0428049	0.0219974
1.775	-0.0141445	0.0573032	-0.139646	0.976521	1.03441	-0.300812	-0.310471	-0.00964195	-0.0716	-0.353423	0.0251533	0.0508115	3.48375e-05	0.788832	-0.052896	-0.198778	-1.36184	0.0731809	0.0211036	0.000119339	-0.311641	-0.124684	0.205182	-0.0616602	-0.373712	0.142845	2.2891	1.93533	0.0223425	-0.00780003	-0.5284	-0.290765	0.082402	2.17344	1.81025	0.0428049	0.0219974
1.78333	-0.0198497	0.0717404	-0.125795	0.979992	1.03875	-0.301574	-0.347425	-0.0269554	-0.119496	-0.313818	-0.0627571	0.0508115	3.48375e-05	0.787849	-0.0280498	-0.193815	-1.25317	0.067789	0.0211036	0.000119339	-0.297199	-0.140442	0.199145	-0.0702644	-0.374601	0.147109	2.31643	1.93973	0.0223425	-0.00780003	-0.551176	-0.291243	0.0705738	2.1869	1.79848	0.0428049	0.0219974
1.79167	-0.0248201	0.0816998	-0.111156	0.98328	1.04273	-0.302448	-0.379474	-0.03775	-0.165753	-0.287466	-0.140121	0.0508115	3.48375e-05	0.781155	-0.00465844	-0.182216	-1.14005	0.0639377	0.0211036	0.000119339	-0.285066	-0.151401	0.192823	-0.0798377	-0.376622	0.151477	2.34186	1.9463	0.0223425	-0.00780003	-0.571197	-0.291609	0.0599881	2.19816	1.78492	0.0428049	0.0219974
